<svg width="50" height="50" viewBox="0 0 50 50" fill="none" xmlns="http://www.w3.org/2000/svg">
<path d="M48.149 22.8176C46.8515 21.5202 44.7406 21.5202 43.4432 22.8176L36.7911 29.4697V8.78447C36.7911 8.60498 36.7205 8.43262 36.5945 8.30479L29.4815 1.08281C29.353 0.952344 29.1776 0.878906 28.9945 0.878906H1.56177C1.18423 0.878906 0.878174 1.18496 0.878174 1.5625V48.4375C0.878174 48.815 1.18423 49.1211 1.56177 49.1211H36.1076C36.4851 49.1211 36.7912 48.815 36.7912 48.4375V38.8811L48.149 27.5232C49.4462 26.2258 49.4463 24.1149 48.149 22.8176ZM33.0767 40.6619L30.3045 37.8897L42.4305 25.7637L45.2027 28.5358L33.0767 40.6619ZM29.5791 39.0978L31.8428 41.3615L28.1785 42.6637L29.5791 39.0978ZM29.6781 3.23076L34.4748 8.10088H29.6781V3.23076ZM35.424 47.7539H2.24536V2.24609H28.3109V8.78447C28.3109 9.16201 28.6169 9.46807 28.9945 9.46807H35.424V30.8369L28.8237 37.4373C28.7572 37.5038 28.7051 37.5833 28.6708 37.6708L26.3575 43.5603C26.2596 43.8096 26.3163 44.0931 26.5025 44.2855C26.6335 44.421 26.8118 44.4938 26.9938 44.4938C27.0705 44.4938 27.1478 44.4809 27.2226 44.4543L33.2748 42.3037C33.3705 42.2697 33.4575 42.2147 33.5292 42.143L35.424 40.2482V47.7539ZM47.1822 26.5564L46.1695 27.5691L43.3973 24.797L44.41 23.7843C45.1744 23.0199 46.4179 23.0199 47.1823 23.7843C47.9465 24.5485 47.9464 25.7922 47.1822 26.5564ZM18.151 11.6752V9.82373C18.151 9.44619 18.4571 9.14014 18.8346 9.14014C19.2122 9.14014 19.5182 9.44619 19.5182 9.82373V11.6752C19.5182 12.0527 19.2122 12.3588 18.8346 12.3588C18.4571 12.3588 18.151 12.0527 18.151 11.6752ZM12.1539 11.797C11.9651 11.47 12.0771 11.052 12.4041 10.8632C12.731 10.6744 13.1491 10.7864 13.3378 11.1134L14.2636 12.7168C14.4524 13.0437 14.3404 13.4618 14.0134 13.6506C13.9058 13.7128 13.7882 13.7423 13.6722 13.7423C13.436 13.7423 13.2062 13.6197 13.0796 13.4004L12.1539 11.797ZM7.69653 15.5707C7.8853 15.2437 8.30337 15.1317 8.63032 15.3205L10.2337 16.2462C10.5607 16.435 10.6727 16.853 10.4839 17.18C10.3574 17.3993 10.1276 17.5219 9.89136 17.5219C9.77534 17.5219 9.65786 17.4924 9.55015 17.4302L7.94673 16.5045C7.61968 16.3158 7.50767 15.8977 7.69653 15.5707ZM25.5155 11.797L24.5897 13.4004C24.4631 13.6197 24.2333 13.7423 23.9971 13.7423C23.8811 13.7423 23.7636 13.7128 23.6559 13.6506C23.329 13.4618 23.2169 13.0437 23.4057 12.7168L24.3315 11.1134C24.5203 10.7864 24.9384 10.6744 25.2653 10.8632C25.5922 11.052 25.7042 11.47 25.5155 11.797ZM27.1854 17.1801C26.9966 16.8531 27.1086 16.4351 27.4356 16.2463L29.039 15.3206C29.3661 15.1318 29.784 15.2438 29.9728 15.5708C30.1616 15.8978 30.0496 16.3158 29.7226 16.5046L28.1192 17.4303C28.0115 17.4925 27.894 17.522 27.778 17.522C27.5417 17.522 27.312 17.3993 27.1854 17.1801ZM18.8346 14.3783C15.2822 14.3783 12.392 17.2685 12.392 20.8209C12.392 22.6182 12.9817 23.5307 13.5518 24.413C14.1305 25.3086 14.7271 26.2332 14.9722 28.3338C14.4093 28.5926 14.0167 29.1604 14.0167 29.8194V31.8742C14.0167 32.7761 14.7505 33.5099 15.6524 33.5099H15.9474V33.7809C15.9474 34.653 16.657 35.3626 17.5292 35.3626H20.1399C21.0121 35.3626 21.7216 34.653 21.7216 33.7809V33.5099H22.0166C22.9185 33.5099 23.6523 32.7761 23.6523 31.8742V29.8194C23.6523 29.1604 23.2597 28.5927 22.6968 28.3338C22.9419 26.2332 23.5385 25.3086 24.1172 24.413C24.6875 23.5306 25.277 22.6182 25.277 20.8209C25.2772 17.2685 22.3871 14.3783 18.8346 14.3783ZM22.2853 31.8742C22.2853 32.0197 22.1624 32.1427 22.0168 32.1427H21.0381C20.6606 32.1427 20.3545 32.4487 20.3545 32.8263V33.7809C20.3545 33.8972 20.2563 33.9954 20.14 33.9954H17.5293C17.413 33.9954 17.3148 33.8972 17.3148 33.7809V32.8263C17.3148 32.4487 17.0087 32.1427 16.6312 32.1427H15.6526C15.5071 32.1427 15.3841 32.0197 15.3841 31.8742V29.8194C15.3841 29.6739 15.5071 29.551 15.6526 29.551H22.0169C22.1625 29.551 22.2854 29.6739 22.2854 29.8194L22.2853 31.8742ZM22.9692 23.671C22.3646 24.6065 21.624 25.7545 21.3387 28.1837H19.5183V22.2873L21.6461 21.0589C21.9731 20.8701 22.0851 20.452 21.8963 20.1251C21.7076 19.7981 21.2896 19.6861 20.9625 19.8749L18.8347 21.1033L16.7069 19.8749C16.3799 19.686 15.9619 19.7981 15.7731 20.1251C15.5843 20.452 15.6963 20.8701 16.0233 21.0589L18.1511 22.2873V28.1837H16.3307C16.0455 25.7545 15.3048 24.6065 14.7002 23.671C14.154 22.8257 13.7593 22.2148 13.7593 20.8209C13.7593 18.0224 16.0361 15.7455 18.8347 15.7455C21.6334 15.7455 23.9101 18.0223 23.9101 20.8209C23.91 22.2148 23.5154 22.8257 22.9692 23.671ZM24.5931 43.8102C24.5931 44.1877 24.2871 44.4938 23.9095 44.4938H5.57534C5.1978 44.4938 4.89175 44.1877 4.89175 43.8102C4.89175 43.4326 5.1978 43.1266 5.57534 43.1266H23.9094C24.2871 43.1266 24.5931 43.4326 24.5931 43.8102ZM4.89175 39.1483C4.89175 38.7708 5.1978 38.4647 5.57534 38.4647H19.0668C19.4444 38.4647 19.7504 38.7708 19.7504 39.1483C19.7504 39.5259 19.4444 39.8319 19.0668 39.8319H5.57534C5.1978 39.8319 4.89175 39.526 4.89175 39.1483Z" fill="#FBDB12"/>
</svg>
