<svg width="50" height="50" viewBox="0 0 50 50" fill="none" xmlns="http://www.w3.org/2000/svg">
<g clip-path="url(#clip0_4_591)">
<path d="M41.2598 26.4258C40.8594 26.4258 40.5273 26.748 40.5273 27.1582C40.5273 27.5684 40.1172 28.0859 39.5996 28.0859C39.082 28.0859 38.6719 27.6758 38.6719 27.1582C38.6719 26.6406 38.3496 26.4258 37.9395 26.4258C37.5293 26.4258 37.207 26.748 37.207 27.1582C37.207 28.4668 38.2715 29.541 39.5898 29.541C40.9082 29.541 41.9727 28.4766 41.9727 27.1582C41.9727 26.7578 41.6504 26.4258 41.2402 26.4258H41.2598Z" fill="#FBDB12"/>
<path d="M48.0859 26.543L46.0352 25.8887C45.7715 25.8008 45.5664 25.5957 45.4785 25.332C45.0488 23.9551 44.3945 22.6758 43.5449 21.5039C43.1543 20.9668 42.7246 20.459 42.2559 19.9805C42.5586 18.6523 42.7246 17.1582 42.7051 15.8594C42.6758 14.0039 42.3047 12.9199 41.5723 12.5391C41.1816 12.334 39.9805 11.709 33.4863 14.6777C33.3301 14.7461 33.1934 14.834 33.0566 14.9316C32.6172 14.8145 32.168 14.707 31.7188 14.6094C31.6602 14.5996 31.6113 14.5898 31.5527 14.5801C32.0801 13.4277 32.3828 12.1875 32.4414 10.8984C32.4609 10.498 32.1484 10.1563 31.748 10.1367C31.3477 10.1172 31.0059 10.4297 30.9863 10.8301C30.8887 12.9492 30.0098 14.9414 28.5156 16.4453C27.6172 17.3438 26.5723 17.998 25.4492 18.4082C23.5059 18.1348 21.5332 18.1348 19.5898 18.4082C18.4668 17.998 17.4219 17.3438 16.5234 16.4453C14.9219 14.8438 14.043 12.7148 14.043 10.4492C14.043 8.18359 14.9219 6.05469 16.5234 4.45312C18.125 2.85156 20.2539 1.97266 22.5195 1.97266C24.7852 1.97266 26.9141 2.85156 28.5156 4.45312C29.1602 5.09766 29.6875 5.83008 30.0977 6.63086C30.2832 6.99219 30.7129 7.13867 31.0742 6.95312C31.4355 6.77734 31.582 6.33789 31.3965 5.97656C30.918 5.0293 30.3027 4.16992 29.541 3.41797C27.666 1.54297 25.1758 0.507812 22.5195 0.507812C19.8633 0.507812 17.373 1.54297 15.498 3.41797C13.623 5.29297 12.5879 7.7832 12.5879 10.4395C12.5879 13.0957 13.623 15.5859 15.498 17.4609C17.373 19.3359 16.6309 18.4668 17.2461 18.8574C16.7969 18.9746 16.3477 19.1113 15.8984 19.2578C15.5176 19.3848 15.3125 19.7949 15.4395 20.1758C15.5664 20.5566 15.9766 20.7617 16.3574 20.6348C20.3223 19.3066 24.6973 19.3066 28.6621 20.6348C28.7402 20.6641 28.8184 20.6738 28.8965 20.6738C29.1992 20.6738 29.4824 20.4785 29.5898 20.1758C29.7168 19.7949 29.5117 19.3848 29.1309 19.2578C28.6914 19.1113 28.2422 18.9746 27.7832 18.8574C28.4082 18.4668 28.9941 17.998 29.5312 17.4609C30.0098 16.9824 30.4297 16.4551 30.8008 15.9082C31.0059 15.9473 31.2012 15.9863 31.3965 16.0352C31.6602 16.0938 31.9141 16.1523 32.1777 16.2207C32.1777 16.25 32.1582 16.2793 32.1582 16.3184C31.8066 17.998 31.8262 19.4922 32.2266 20.7422C32.5879 21.8652 33.2324 22.7832 34.1602 23.457C35.2441 24.248 36.5527 24.5898 37.7441 24.5898C38.9355 24.5898 39.4629 24.3945 40.0684 24.0527C40.752 23.6621 41.3281 22.8516 41.7773 21.6211C41.9824 21.8652 42.1875 22.1191 42.373 22.373C43.1348 23.418 43.7109 24.5605 44.0918 25.7812C44.3164 26.4941 44.873 27.0605 45.5859 27.2949L47.6367 27.9492C48.1738 28.125 48.5352 28.6133 48.5352 29.1797V32.5781C48.5352 33.1445 48.1738 33.6328 47.6367 33.8086L44.3359 34.8633C43.8086 35.0293 43.3594 35.3906 43.0762 35.8887C41.7773 38.125 39.7461 39.9805 37.0215 41.3965C36.709 41.5625 36.4844 41.8555 36.4258 42.1973L35.3711 47.793C35.3418 47.9492 35.2051 48.0566 35.0488 48.0566H31.6113C31.4551 48.0566 31.3184 47.9492 31.2891 47.793L30.7031 44.6973C30.5859 44.0918 30.0195 43.6816 29.4043 43.7793C27.9199 44.0039 26.3965 44.1211 24.873 44.1211C23.3496 44.1211 22.6172 44.0625 21.543 43.9355C20.9473 43.8672 20.3906 44.2773 20.2832 44.8633L19.7266 47.8027C19.6973 47.959 19.5605 48.0664 19.4043 48.0664H15.9668C15.8105 48.0664 15.6738 47.959 15.6445 47.8027L14.6289 42.5195C14.5605 42.1777 14.3457 41.8848 14.043 41.7285C9.4043 39.248 6.94336 35.1074 6.94336 29.7559C6.94336 24.4043 7.53906 24.6582 8.70117 22.6465C9.79492 20.7715 11.3867 19.2188 13.4277 18.0273C13.7793 17.8223 13.8965 17.3828 13.6914 17.0312C13.4863 16.6797 13.0469 16.5625 12.6953 16.7676C8.7207 19.0625 6.32812 22.6074 5.66406 27.1094C5.5957 27.1094 5.52734 27.0996 5.44922 27.0898C5.45898 26.6016 5.37109 26.1133 5.18555 25.6348C4.76562 24.5898 3.89648 23.8281 2.97852 23.7012C2.25586 23.6035 1.5625 23.916 1.08398 24.541C0.390625 25.459 0.507812 26.1816 0.722656 26.6309C1.09375 27.3828 2.03125 27.9199 3.59375 28.252C3.55469 28.3203 3.50586 28.3789 3.44727 28.4473C2.51953 29.6094 1.43555 29.8633 0.732422 29.8828C0.322266 29.8926 -0.00976562 30.2246 -0.00976562 30.6445C-0.00976562 31.0547 0.3125 31.3867 0.722656 31.4062C0.771484 31.4062 0.830078 31.4062 0.888672 31.4062C1.78711 31.4062 3.22266 31.0742 4.59961 29.3457C4.81445 29.0723 4.99023 28.7891 5.12695 28.4863C5.26367 28.5059 5.40039 28.5156 5.52734 28.5254C5.49805 28.916 5.48828 29.3164 5.48828 29.7266C5.48828 32.7539 6.21094 35.459 7.63672 37.7539C8.94531 39.873 10.8301 41.6113 13.2324 42.9102L14.2188 48.0469C14.375 48.8867 15.1172 49.502 15.9668 49.502H19.4043C20.2637 49.502 20.9961 48.8965 21.1523 48.0469L21.6504 45.3906C22.6953 45.498 23.7793 45.5566 24.873 45.5566C25.9668 45.5566 27.8711 45.4492 29.3359 45.2441L29.8633 48.0469C30.0195 48.8867 30.7617 49.502 31.6113 49.502H35.0488C35.9082 49.502 36.6406 48.8965 36.7969 48.0469L37.8223 42.5977C40.7324 41.0645 42.9199 39.043 44.3359 36.5918C44.4336 36.416 44.5996 36.2891 44.7754 36.2305L48.0762 35.1758C49.2188 34.8145 49.9902 33.7598 49.9902 32.5586V29.1602C49.9902 27.959 49.2188 26.9043 48.0762 26.543H48.0859ZM41.1426 17.9004C40.8594 20.293 40.1074 22.3438 39.3555 22.7734C38.4961 23.2617 36.5137 23.3496 35.0293 22.2656C33.5449 21.1719 33.0469 19.2188 33.5938 16.6016C33.6523 16.3379 33.8379 16.1133 34.0918 15.9961C37.7344 14.3262 39.834 13.7793 40.6152 13.7793C41.3965 13.7793 40.8203 13.7891 40.8789 13.8184C41.1133 14.0723 41.416 15.4883 41.1426 17.9102V17.9004ZM2.04102 25.9766C1.96289 25.8203 2.13867 25.5469 2.25586 25.4004C2.43164 25.166 2.59766 25.1172 2.72461 25.1172C2.85156 25.1172 2.77344 25.1172 2.80273 25.1172C3.13477 25.166 3.60352 25.5273 3.85742 26.1426C3.91602 26.2891 3.99414 26.5332 4.01367 26.8262C3.00781 26.6211 2.22656 26.3184 2.05078 25.9668L2.04102 25.9766Z" fill="#FBDB12"/>
<path d="M24.3554 9.0625C24.2675 9.24805 24.082 9.36523 23.8866 9.36523H18.1738C17.8124 9.36523 17.5585 9.00391 17.6855 8.67188C17.7636 8.4668 17.9589 8.33008 18.1738 8.33008H23.8866C24.2675 8.33008 24.5214 8.7207 24.3554 9.07227V9.0625ZM23.457 11.1426C23.3691 11.3281 23.1835 11.4453 22.9882 11.4453H18.1738C17.8124 11.4453 17.5585 11.084 17.6855 10.752C17.7636 10.5469 17.9589 10.4102 18.1738 10.4102H22.9882C23.3691 10.4102 23.623 10.8008 23.457 11.1523V11.1426ZM25.7519 5.86914L25.6933 5.99609C25.5566 6.28906 25.1952 6.38672 24.9316 6.21094C24.6679 6.03516 24.7949 6.12305 24.7167 6.07422C24.4726 5.92773 24.2089 5.82031 23.9452 5.73242C23.6718 5.6543 23.3886 5.61523 23.0956 5.61523C22.5097 5.61523 21.9726 5.78125 21.5038 6.10352C21.0351 6.42578 20.664 6.91406 20.3808 7.54883C20.1074 8.18359 19.9706 8.96484 19.9706 9.88281C19.9706 10.8008 20.1074 11.582 20.3808 12.2168C20.6542 12.8516 21.0253 13.3301 21.5038 13.6621C21.9726 13.9844 22.5097 14.1504 23.0956 14.1504C23.6816 14.1504 23.6913 14.1113 23.9648 14.0332C24.2382 13.9551 24.4921 13.8477 24.7265 13.7012C24.7851 13.6621 24.8437 13.6328 24.9023 13.5938C25.1659 13.4277 25.5175 13.5156 25.6542 13.7988L25.7226 13.9453C25.83 14.1699 25.7616 14.4434 25.5663 14.5898C25.2831 14.7949 24.9706 14.9609 24.6191 15.0879C24.1308 15.2637 23.623 15.3516 23.0859 15.3516C22.2363 15.3516 21.4745 15.127 20.8202 14.6875C20.1659 14.248 19.6484 13.6133 19.2773 12.793C18.9062 11.9727 18.7206 11.0059 18.7206 9.88281C18.7206 8.75977 18.9062 7.79297 19.2773 6.97266C19.6484 6.15234 20.1659 5.52734 20.8202 5.07812C21.4745 4.63867 22.2363 4.41406 23.0859 4.41406C23.9355 4.41406 24.1503 4.51172 24.6288 4.69727C24.9804 4.83398 25.2929 5.01953 25.5859 5.24414C25.8788 5.46875 25.8398 5.6543 25.7421 5.87891L25.7519 5.86914Z" fill="#FBDB12"/>
</g>
<defs>
<clipPath id="clip0_4_591">
<rect width="50" height="50" fill="white"/>
</clipPath>
</defs>
</svg>
