<svg width="40" height="40" viewBox="0 0 40 40" fill="none" xmlns="http://www.w3.org/2000/svg">
<g clip-path="url(#clip0_3_369)">
<path d="M24.6667 23.3334H23.9333C23.6575 23.3339 23.4107 23.1618 23.316 22.9027C23.2347 22.6894 23.1473 22.4807 23.0533 22.274C22.9365 22.0227 22.9898 21.7251 23.1867 21.53L23.7093 21.0067C24.4852 20.224 24.4838 18.9616 23.706 18.1807L21.822 16.2967C21.0401 15.5194 19.7772 15.5194 18.9953 16.2967L18.4727 16.8187C18.2772 17.0148 17.9801 17.068 17.7287 16.952C17.522 16.858 17.3133 16.7707 17.0993 16.6854C16.8389 16.5913 16.6657 16.3436 16.6667 16.0667V15.3334C16.6667 14.2288 15.7712 13.3334 14.6667 13.3334H12C10.8954 13.3334 10 14.2288 10 15.3334V16.0667C10.0005 16.3425 9.82842 16.5893 9.56933 16.684C9.356 16.7654 9.14733 16.8527 8.94067 16.9467C8.68925 17.063 8.39208 17.0097 8.19667 16.8134L7.67333 16.2907C6.8915 15.5139 5.62917 15.5139 4.84733 16.2907L2.96333 18.1807C2.186 18.9626 2.186 20.2255 2.96333 21.0074L3.48533 21.53C3.68217 21.7251 3.7355 22.0227 3.61867 22.274C3.52467 22.4807 3.43733 22.6894 3.35533 22.9034C3.25992 23.164 3.01083 23.3362 2.73333 23.3334H2C0.895417 23.3334 0 24.2288 0 25.3334V28C0 29.1046 0.895417 30 2 30H2.73333C3.00917 29.9995 3.25592 30.1716 3.35067 30.4307C3.432 30.644 3.51933 30.8527 3.61333 31.0594C3.73017 31.3107 3.67683 31.6083 3.48 31.8034L2.95733 32.3267C2.1805 33.1085 2.1805 34.3709 2.95733 35.1527L4.84133 37.0367C5.62325 37.814 6.88608 37.814 7.668 37.0367L8.19067 36.5147C8.38617 36.3186 8.68325 36.2654 8.93467 36.3814C9.14133 36.4754 9.35 36.5627 9.564 36.648C9.82575 36.741 10.0005 36.989 10 37.2667V38C10 39.1046 10.8954 40 12 40H14.6667C15.7712 40 16.6667 39.1046 16.6667 38V37.2667C16.6662 36.9909 16.8382 36.7441 17.0973 36.6494C17.3107 36.568 17.5193 36.4807 17.726 36.3867C17.9774 36.2705 18.2746 36.3237 18.47 36.52L18.9933 37.0427C19.7762 37.8183 21.0382 37.8168 21.8193 37.0394L23.7033 35.1554C24.4807 34.3735 24.4807 33.1106 23.7033 32.3287L23.1813 31.806C22.9845 31.611 22.9312 31.3134 23.048 31.062C23.142 30.8554 23.2293 30.6467 23.3147 30.4327C23.4087 30.1723 23.6564 29.999 23.9333 30H24.6667C25.7712 30 26.6667 29.1046 26.6667 28V25.3334C26.6667 24.2288 25.7712 23.3334 24.6667 23.3334ZM25.3333 28C25.3333 28.3682 25.0348 28.6667 24.6667 28.6667H23.9333C23.1046 28.6698 22.3629 29.182 22.0667 29.956C21.996 30.1427 21.9196 30.3265 21.8373 30.5074C21.4946 31.264 21.6536 32.1537 22.2373 32.7447L22.7587 33.2667C23.0192 33.5269 23.0194 33.949 22.7592 34.2095C22.759 34.2097 22.7588 34.2099 22.7587 34.21L20.8747 36.094C20.6143 36.3543 20.1923 36.3543 19.932 36.094L19.4093 35.572C18.8186 34.9878 17.9286 34.8287 17.172 35.172C16.9913 35.254 16.8073 35.3307 16.622 35.4014C15.8486 35.6975 15.3367 36.4385 15.3333 37.2667V38C15.3333 38.3682 15.0348 38.6667 14.6667 38.6667H12C11.6318 38.6667 11.3333 38.3682 11.3333 38V37.2667C11.3302 36.438 10.818 35.6963 10.044 35.4C9.85733 35.3294 9.67358 35.253 9.49267 35.1707C8.736 34.8281 7.84642 34.9872 7.25533 35.5707L6.73333 36.092C6.47317 36.3525 6.051 36.3528 5.7905 36.0925C5.79033 36.0924 5.79017 36.0922 5.79 36.092L3.906 34.21C3.64575 33.9497 3.64575 33.5277 3.906 33.2674L4.428 32.7447C5.01175 32.1537 5.17075 31.264 4.828 30.5074C4.746 30.3267 4.66933 30.1427 4.59867 29.9574C4.30317 29.1831 3.562 28.6704 2.73333 28.6667H2C1.63183 28.6667 1.33333 28.3682 1.33333 28V25.3334C1.33333 24.9652 1.63183 24.6667 2 24.6667H2.73333C3.56208 24.6636 4.30375 24.1514 4.6 23.3774C4.67067 23.1907 4.74708 23.007 4.82933 22.826C5.17208 22.0694 5.013 21.1797 4.42933 20.5887L3.90533 20.0667C3.64483 19.8065 3.64458 19.3844 3.90483 19.1239C3.905 19.1237 3.90517 19.1235 3.90533 19.1234L5.78933 17.2394C6.04967 16.9791 6.47167 16.9791 6.732 17.2394L7.25467 17.7614C7.84542 18.3456 8.73542 18.5047 9.492 18.1614C9.67267 18.0794 9.85667 18.0027 10.042 17.932C10.8165 17.6368 11.3296 16.8955 11.3333 16.0667V15.3334C11.3333 14.9652 11.6318 14.6667 12 14.6667H14.6667C15.0348 14.6667 15.3333 14.9652 15.3333 15.3334V16.0667C15.3364 16.8955 15.8487 17.6371 16.6227 17.9334C16.8093 18.004 16.9931 18.0805 17.174 18.1627C17.9306 18.506 18.8206 18.347 19.4113 17.7627L19.9333 17.2414C20.1947 16.9829 20.6153 16.9829 20.8767 17.2414L22.7607 19.1254C23.0209 19.3857 23.0209 19.8077 22.7607 20.068L22.2387 20.5907C21.655 21.1817 21.4959 22.0714 21.8387 22.828C21.9207 23.0087 21.9973 23.1927 22.068 23.378C22.3642 24.1515 23.1052 24.6634 23.9333 24.6667H24.6667C25.0348 24.6667 25.3333 24.9652 25.3333 25.3334V28Z" fill="#FBDB12"/>
<path d="M19.32 26.4C19.3133 26.24 19.302 26.0806 19.2826 25.922C19.2613 25.7513 19.236 25.582 19.2006 25.416C19.1773 25.3073 19.1466 25.2 19.1173 25.092C19.08 24.9546 19.038 24.8193 18.9913 24.686C18.9586 24.5933 18.9246 24.5013 18.89 24.41C18.8041 24.1965 18.706 23.988 18.596 23.786C18.5873 23.7706 18.582 23.754 18.5733 23.7386C18.3999 23.43 18.199 23.1374 17.9733 22.8646C17.954 22.8406 17.932 22.818 17.912 22.7946C17.82 22.686 17.7253 22.5806 17.626 22.48C17.574 22.426 17.5193 22.3753 17.4646 22.3233C17.398 22.2613 17.3313 22.2 17.2646 22.1413C17.1837 22.071 17.1013 22.003 17.0173 21.9373L16.908 21.856C15.8764 21.0833 14.6221 20.666 13.3333 20.6666C13.2666 20.6666 13.2 20.6766 13.1333 20.6793C12.9913 20.6833 12.8486 20.6913 12.7053 20.706C12.63 20.714 12.554 20.7226 12.4786 20.7333C12.2613 20.7619 12.0456 20.8022 11.8326 20.854C8.62254 21.6835 6.69271 24.9583 7.52221 28.1684C8.06887 30.2837 9.72154 31.935 11.8373 32.48C11.848 32.48 11.8593 32.4833 11.8706 32.486C12.1009 32.5434 12.3341 32.588 12.5693 32.6193C12.7246 32.6386 12.88 32.6426 13.036 32.65C13.14 32.6553 13.236 32.6706 13.3446 32.6706C13.5346 32.6706 13.732 32.658 13.9333 32.638C13.9546 32.638 13.976 32.632 14 32.6293C14.162 32.6113 14.326 32.5873 14.4933 32.554C14.56 32.5413 14.622 32.5246 14.686 32.51C14.8033 32.4826 14.92 32.454 15.04 32.4186C15.1333 32.3906 15.224 32.358 15.3153 32.326C15.4066 32.294 15.5013 32.2593 15.596 32.2233C15.6906 32.1873 15.77 32.146 15.856 32.106C15.968 32.0546 16.0793 32.004 16.1893 31.944H16.1933C16.8155 31.6109 17.3901 31.1959 17.902 30.71C18.0402 30.581 18.1605 30.4338 18.2593 30.2726C18.7796 29.4385 19.1215 28.5055 19.2633 27.5326C19.282 27.404 19.2986 27.2753 19.3086 27.144C19.318 27.0233 19.3246 26.9033 19.3273 26.7833C19.3273 26.7453 19.3326 26.7093 19.3326 26.6713C19.3333 26.5773 19.324 26.4906 19.32 26.4ZM17.9913 26.8366C17.9913 26.892 17.9866 26.9473 17.9833 27.002C17.9713 27.1633 17.9506 27.3246 17.9233 27.4866C17.6741 28.8727 16.8135 30.0727 15.5806 30.7533C15.498 30.7966 15.4166 30.8373 15.3353 30.8746L15.28 30.9013C14.8926 31.0771 14.4838 31.2009 14.064 31.2693C14.0346 31.274 14.0046 31.2793 13.9746 31.2833C13.8913 31.2953 13.8093 31.3053 13.728 31.3126C13.6206 31.322 13.5126 31.3273 13.4026 31.3293C13.356 31.3293 13.31 31.3293 13.2633 31.3293C13.1055 31.3275 12.948 31.3177 12.7913 31.3L12.7113 31.2906C12.528 31.2666 12.3461 31.2324 12.1666 31.188C9.66979 30.5489 8.16379 28.0067 8.80279 25.5099C9.22504 23.86 10.5125 22.5712 12.162 22.1473V22.1466C12.545 22.05 12.9383 22.0007 13.3333 22C13.5239 22.001 13.7143 22.014 13.9033 22.0386C13.954 22.0446 14.004 22.054 14.054 22.0613C14.198 22.084 14.3406 22.1126 14.4813 22.1486C14.5273 22.1606 14.5733 22.1713 14.6186 22.184C14.9731 22.2863 15.3144 22.43 15.6353 22.612C15.6866 22.642 15.7366 22.6733 15.7873 22.7046C15.8926 22.7713 15.9946 22.838 16.0953 22.914C16.1493 22.9533 16.204 22.992 16.256 23.034C16.3868 23.1385 16.512 23.2497 16.6313 23.3673C16.6786 23.4153 16.722 23.468 16.768 23.518C16.8446 23.6013 16.9193 23.6866 16.9906 23.7766C17.04 23.8386 17.0873 23.9026 17.134 23.9673C17.2006 24.0633 17.2673 24.1633 17.3273 24.2646C17.3606 24.32 17.394 24.374 17.428 24.4306C17.514 24.5889 17.5905 24.752 17.6573 24.9193C17.684 24.986 17.7066 25.0526 17.7306 25.1193C17.774 25.242 17.8113 25.366 17.844 25.4913C17.8606 25.558 17.8793 25.6173 17.8933 25.682C17.9322 25.8621 17.9605 26.0445 17.978 26.228C17.982 26.2766 17.982 26.326 17.9853 26.3746C17.9946 26.528 17.9973 26.682 17.9913 26.8366Z" fill="#FBDB12"/>
<path d="M38 14H35.9033C35.6237 14.0028 35.3736 13.8268 35.282 13.5627C35.0752 12.9434 34.825 12.3394 34.5333 11.7553C34.4095 11.5031 34.461 11.1998 34.6613 11.0027L36.148 9.514C36.9283 8.73308 36.9283 7.46758 36.148 6.68667L33.3133 3.85667C32.5324 3.07633 31.2669 3.07633 30.486 3.85667L29 5.342C28.803 5.54217 28.5002 5.594 28.248 5.47067C27.6638 5.17742 27.0596 4.92592 26.44 4.718C26.1748 4.62725 25.9975 4.37692 26 4.09667V2C26 0.895417 25.1045 0 24 0H20C18.8954 0 18 0.895417 18 2V4.09667C18.0028 4.37625 17.8268 4.62633 17.5626 4.718C16.9433 4.92583 16.3393 5.17717 15.7553 5.47C15.503 5.59425 15.1996 5.54267 15.0026 5.342L13.514 3.85533C12.7321 3.07725 11.4685 3.07725 10.6866 3.85533L7.85729 6.68467C7.07654 7.46567 7.07654 8.73167 7.85729 9.51267L10.0433 11.7027C10.3077 11.9588 10.7298 11.9522 10.986 11.6877C11.2359 11.4297 11.2365 11.02 10.9873 10.7613L8.79996 8.572C8.53971 8.31167 8.53971 7.88967 8.79996 7.62933L11.6293 4.8C11.8896 4.53975 12.3116 4.53975 12.572 4.8L14.0613 6.28667C14.6639 6.89283 15.5872 7.04433 16.352 6.66267C16.88 6.39825 17.426 6.17125 17.986 5.98333C18.7941 5.70975 19.3368 4.94992 19.3333 4.09667V2C19.3333 1.63183 19.6318 1.33333 20 1.33333H24C24.3681 1.33333 24.6666 1.63183 24.6666 2V4.09667C24.6632 4.94975 25.2059 5.70933 26.014 5.98267C26.5741 6.17067 27.1204 6.39783 27.6486 6.66267C28.4135 7.04233 29.3356 6.89067 29.9386 6.286L31.428 4.8C31.6883 4.53975 32.1103 4.53975 32.3706 4.8L35.2 7.63C35.4598 7.89025 35.4598 8.31175 35.2 8.572L33.7133 10.0613C33.1077 10.6643 32.9563 11.5872 33.3373 12.352C33.6017 12.8801 33.8287 13.4261 34.0166 13.986C34.29 14.7943 35.05 15.337 35.9033 15.3333H38C38.3681 15.3333 38.6666 15.6318 38.6666 16V20C38.6666 20.3682 38.3681 20.6667 38 20.6667H35.9033C35.0502 20.6632 34.2906 21.2059 34.0173 22.014C33.8294 22.5742 33.6021 23.1204 33.3373 23.6487C32.957 24.4135 33.1087 25.3359 33.714 25.9387L35.2006 27.428C35.4609 27.6883 35.4609 28.1103 35.2006 28.3707L32.37 31.2C32.1097 31.4598 31.6882 31.4598 31.428 31.2L29.2373 29.014C28.9811 28.7495 28.559 28.7428 28.2946 28.999C28.0301 29.2552 28.0235 29.6772 28.2796 29.9417C28.285 29.9472 28.2905 29.9527 28.296 29.958L30.486 32.144C31.2669 32.9243 32.5324 32.9243 33.3133 32.144L36.1426 29.3153C36.9234 28.5343 36.9234 27.2683 36.1426 26.4873L34.658 25C34.458 24.803 34.4062 24.5003 34.5293 24.248C34.8225 23.6638 35.074 23.0597 35.282 22.44C35.3727 22.1748 35.623 21.9975 35.9033 22H38C39.1045 22 40 21.1046 40 20V16C40 14.8954 39.1045 14 38 14Z" fill="#FBDB12"/>
<path d="M28.1279 11.872C24.7414 8.49255 19.2584 8.49255 15.8719 11.872C15.6162 12.1368 15.6235 12.5589 15.8883 12.8146C16.1467 13.0641 16.5563 13.0641 16.8146 12.8146C19.6592 9.93163 24.3023 9.90055 27.1853 12.7451C30.0683 15.5897 30.0993 20.2328 27.2548 23.1158C27.2318 23.1391 27.2086 23.1623 27.1853 23.1853C26.9204 23.4411 26.9131 23.8631 27.1689 24.128C27.4248 24.3928 27.8468 24.4001 28.1116 24.1443C28.1171 24.139 28.1226 24.1335 28.1279 24.128C31.5073 20.7415 31.5073 15.2585 28.1279 11.872Z" fill="#FBDB12"/>
</g>
<defs>
<clipPath id="clip0_3_369">
<rect width="40" height="40" fill="white"/>
</clipPath>
</defs>
</svg>
