<svg width="40" height="40" viewBox="0 0 40 40" fill="none" xmlns="http://www.w3.org/2000/svg">
<g clip-path="url(#clip0_3_308)">
<path d="M39.414 29.0774L33.2078 22.7863" stroke="#FBDB12" stroke-width="1.5" stroke-miterlimit="10" stroke-linecap="round" stroke-linejoin="round"/>
<path d="M20.2605 31.4159C20.4974 31.6299 20.7271 31.8526 20.9492 32.0838L28.2699 39.7806" stroke="#FBDB12" stroke-width="1.5" stroke-miterlimit="10" stroke-linecap="round" stroke-linejoin="round"/>
<path d="M7.27391 22.4958C6.98898 22.9552 6.55305 23.5485 6.16281 23.9454L0.585938 29.0775" stroke="#FBDB12" stroke-width="1.5" stroke-miterlimit="10" stroke-linecap="round" stroke-linejoin="round"/>
<path d="M30.3654 25.7056C30.4542 25.6195 30.5417 25.5319 30.6278 25.4428L37.7739 18.0435C38.7548 17.0265 38.7259 15.4071 37.7094 14.4256C36.6925 13.4437 35.0721 13.472 34.09 14.4888M34.09 14.4888C34.09 14.4888 34.2733 14.3072 34.2737 14.3076L34.09 14.4888ZM34.09 14.4888C34.0902 14.489 35.436 13.0952 35.436 13.0952C36.4176 12.0787 36.3894 10.4588 35.3729 9.47728C34.3562 8.49564 32.7364 8.52392 31.7547 9.54041L30.8119 10.5281M30.8119 10.5281C30.8118 10.528 30.8118 10.5281 30.8119 10.5281ZM30.8119 10.5281C30.8116 10.5283 30.8121 10.5283 30.8119 10.5281ZM30.8119 10.5281L32.616 8.64853C33.5976 7.63205 33.5694 6.01221 32.5529 5.03064C31.5362 4.049 29.9164 4.07728 28.9347 5.09377L27.3268 6.75924L27.3264 6.75892C27.3266 6.75908 27.3269 6.75908 27.3271 6.75892L28.0248 6.0358C29.0065 5.01932 28.9783 3.39947 27.9617 2.41791C26.9459 1.43705 25.2609 1.43697 24.3435 2.48103" stroke="#FBDB12" stroke-width="1.5" stroke-miterlimit="10" stroke-linecap="round" stroke-linejoin="round"/>
<path d="M12.3057 39.7806L19.5506 32.0838C21.2204 30.3456 23.3229 29.0834 25.6422 28.4268C26.5454 28.1711 27.4086 27.8036 28.213 27.3357" stroke="#FBDB12" stroke-width="1.5" stroke-miterlimit="10" stroke-linecap="round" stroke-linejoin="round"/>
<path d="M8.24518 10.1233C7.26354 9.10694 5.64362 9.07866 4.62705 10.0603C3.61049 11.0419 3.58213 12.6616 4.56385 13.6781L8.81612 18.081C9.79776 19.0974 11.4177 19.1257 12.4342 18.144C13.4508 17.1624 13.4792 15.5427 12.4974 14.5262" stroke="#FBDB12" stroke-width="1.5" stroke-miterlimit="10" stroke-linecap="round" stroke-linejoin="round"/>
<path d="M13.1365 7.8215L11.0652 5.67681C10.0836 4.66041 8.46368 4.63212 7.44712 5.61377C6.43056 6.59541 6.4022 8.21509 7.38392 9.23158L12.5459 14.5765C13.5276 15.5929 15.1475 15.6212 16.1641 14.6395C17.1806 13.6579 17.209 12.0382 16.2273 11.0217L15.0246 9.77642" stroke="#FBDB12" stroke-width="1.5" stroke-miterlimit="10" stroke-linecap="round" stroke-linejoin="round"/>
<path d="M16.2271 11.0218C17.2087 12.0382 18.8286 12.0665 19.8452 11.0848C20.8617 10.1032 20.8901 8.48352 19.9084 7.46703L19.6253 7.17383" stroke="#FBDB12" stroke-width="1.5" stroke-miterlimit="10" stroke-linecap="round" stroke-linejoin="round"/>
<path d="M16.783 4.23078L15.6563 3.06414C14.6747 2.04773 13.0547 2.01945 12.0382 3.00109C11.0216 3.98274 10.9933 5.60242 11.975 6.61891" stroke="#FBDB12" stroke-width="1.5" stroke-miterlimit="10" stroke-linecap="round" stroke-linejoin="round"/>
<path d="M5.90977 15.0719C4.92782 14.0551 3.30735 14.0269 2.2904 15.0087C1.27399 15.9902 1.24509 17.6095 2.22595 18.6265L5.18118 21.6865C6.16313 22.7033 7.7836 22.7315 8.80056 21.7497C9.81751 20.7677 9.84579 19.1475 8.86384 18.1307" stroke="#FBDB12" stroke-width="1.5" stroke-miterlimit="10" stroke-linecap="round" stroke-linejoin="round"/>
<path d="M24.3435 2.48105L21.4241 1.10379C20.8221 0.819801 20.1068 0.942614 19.6341 1.41113L15.8785 5.13285C15.4785 5.52925 15.4714 6.17355 15.8624 6.57871C17.1039 7.86449 19.1642 7.86316 20.4035 6.57535C22.177 4.73246 24.3435 2.48105 24.3435 2.48105Z" stroke="#FBDB12" stroke-width="1.5" stroke-miterlimit="10" stroke-linecap="round" stroke-linejoin="round"/>
</g>
<defs>
<clipPath id="clip0_3_308">
<rect width="40" height="40" fill="white"/>
</clipPath>
</defs>
</svg>
