<svg width="50" height="46" viewBox="0 0 50 46" fill="none" xmlns="http://www.w3.org/2000/svg">
<path d="M48.8705 33.2084L32.2497 4.42051C30.7365 1.79961 28.0264 0.234863 25 0.234863C21.9737 0.234863 19.2635 1.79961 17.7503 4.42051L1.12952 33.2084C-0.383667 35.8293 -0.383667 38.9588 1.12952 41.5797C2.6428 44.2006 5.35295 45.7653 8.37922 45.7653H41.6207C44.6471 45.7653 47.3573 44.2006 48.8704 41.5797C50.3836 38.9588 50.3836 35.8294 48.8705 33.2084ZM47.5173 40.7984C46.2865 42.9302 44.0823 44.2028 41.6207 44.2028H8.37932C5.9178 44.2028 3.7135 42.9302 2.48274 40.7984C1.25198 38.6667 1.25198 36.1214 2.48274 33.9896L19.1035 5.20176C20.3343 3.07002 22.5385 1.79736 25 1.79736C27.4615 1.79736 29.6658 3.07002 30.8965 5.20176L47.5173 33.9896C48.7481 36.1214 48.7481 38.6668 47.5173 40.7984ZM28.8232 6.39873C28.0252 5.0167 26.596 4.1915 25 4.1915C23.404 4.1915 21.9748 5.0167 21.1769 6.39883L4.55608 35.1867C3.75813 36.5688 3.75813 38.2191 4.55608 39.6014C5.35413 40.9835 6.78342 41.8087 8.37932 41.8087H41.6208C43.2167 41.8087 44.646 40.9835 45.4441 39.6014C46.242 38.2192 46.242 36.5688 45.4441 35.1867L28.8232 6.39873ZM44.0908 38.8201C43.5676 39.7264 42.6672 40.2462 41.6208 40.2462H8.37932C7.33284 40.2462 6.43254 39.7264 5.9093 38.8201C5.38606 37.9138 5.38606 36.8742 5.9093 35.9679L22.5301 7.17998C23.0532 6.27373 23.9535 5.754 25 5.754C26.0465 5.754 26.9468 6.27373 27.4699 7.18008L44.0908 35.968C44.6141 36.8742 44.6141 37.9139 44.0908 38.8201ZM22.598 27.1188C22.6448 28.4181 23.7 29.4357 25 29.4356C26.3001 29.4356 27.3551 28.418 27.402 27.1187L27.8121 15.7623C27.8363 15.0948 27.6038 14.4878 27.1401 14.0069C26.6763 13.5262 26.0781 13.2721 25.4102 13.2721H24.59C23.9219 13.2721 23.3238 13.5263 22.86 14.007C22.3962 14.4879 22.1639 15.0949 22.188 15.7624L22.598 27.1188ZM23.9846 15.0919C24.1537 14.9165 24.3461 14.8348 24.59 14.8348H25.4102C25.6539 14.8348 25.8462 14.9165 26.0155 15.0919C26.1847 15.2674 26.2595 15.4625 26.2507 15.7062L25.8405 27.0625C25.8241 27.5171 25.4549 27.8732 25 27.8732C24.5451 27.8732 24.1759 27.5172 24.1595 27.0625L23.7494 15.7062C23.7407 15.4625 23.8154 15.2673 23.9846 15.0919ZM25 30.0463C23.4233 30.0463 22.1405 31.3291 22.1405 32.9059C22.1405 34.4826 23.4233 35.7654 25 35.7654C26.5768 35.7654 27.8597 34.4826 27.8597 32.9059C27.8597 31.3291 26.5768 30.0463 25 30.0463ZM25 34.203C24.2848 34.203 23.703 33.6212 23.703 32.906C23.703 32.1907 24.2848 31.6089 25 31.6089C25.7153 31.6089 26.2972 32.1907 26.2972 32.906C26.2972 33.6212 25.7153 34.203 25 34.203Z" fill="#FBDB12"/>
</svg>
