<svg width="50" height="50" viewBox="0 0 50 50" fill="none" xmlns="http://www.w3.org/2000/svg">
<g clip-path="url(#clip0_4_624)">
<path d="M12.0928 37.2089C5.42504 37.2089 0 31.7449 0 25.0306C0 18.3152 5.42504 12.8516 12.0928 12.8516C18.7606 12.8516 24.1857 18.3152 24.1857 25.0306C24.1857 31.7449 18.7614 37.2089 12.0928 37.2089ZM12.0928 14.4653C6.31379 14.4653 1.6129 19.2039 1.6129 25.0306C1.6129 30.8565 6.31379 35.596 12.0928 35.596C17.8719 35.596 22.5728 30.8565 22.5728 25.0306C22.5728 19.2039 17.8719 14.4653 12.0928 14.4653Z" fill="#FBDB12"/>
<path d="M10.2753 29.5234C10.0799 29.5234 9.88542 29.4533 9.72988 29.3116L5.69604 25.6156L6.78641 24.426L10.2414 27.5912L17.4317 20.1523L18.5914 21.2742L10.8549 29.2777C10.6978 29.4411 10.4863 29.5234 10.2753 29.5234Z" fill="#FBDB12"/>
<path d="M23.3792 24.2244H42.3402V25.8373H23.3792V24.2244Z" fill="#FBDB12"/>
<path d="M45.6783 29.3799C43.2944 29.3799 41.3555 27.4292 41.3555 25.0307C41.3555 22.6322 43.2944 20.6807 45.6783 20.6807C48.0615 20.6807 50 22.6322 50 25.0307C50 27.4292 48.0615 29.3799 45.6783 29.3799ZM45.6783 22.2944C44.184 22.2944 42.9684 23.5218 42.9684 25.0315C42.9684 26.5412 44.1847 27.7678 45.6783 27.7678C47.1719 27.7678 48.3871 26.5396 48.3871 25.0307C48.3871 23.5218 47.1719 22.2944 45.6783 22.2944Z" fill="#FBDB12"/>
<path d="M20.0853 16.2612H18.4724V8.3814C18.4724 7.93526 18.8331 7.57495 19.2789 7.57495H35.1669V9.18785H20.0853V16.2612Z" fill="#FBDB12"/>
<path d="M38.3687 12.7299C35.9856 12.7299 34.0466 10.7792 34.0466 8.38069C34.0466 5.9822 35.9856 4.03223 38.3687 4.03223C40.7526 4.03223 42.6912 5.98299 42.6912 8.38147C42.6912 10.78 40.7526 12.7299 38.3687 12.7299ZM38.3687 5.64513C36.8743 5.64513 35.6595 6.87174 35.6595 8.38147C35.6595 9.89121 36.8751 11.1178 38.3687 11.1178C39.8623 11.1178 41.0783 9.89121 41.0783 8.38147C41.0783 6.87174 39.8631 5.64513 38.3687 5.64513Z" fill="#FBDB12"/>
<path d="M34.3321 42.4251H19.2789C18.8331 42.4251 18.4724 42.0648 18.4724 41.6186V33.7388H20.0853V40.8122H34.3321V42.4251Z" fill="#FBDB12"/>
<path d="M37.6701 45.9678C35.2862 45.9678 33.3477 44.017 33.3477 41.6185C33.3477 39.22 35.2862 37.2693 37.6701 37.2693C40.0533 37.2693 41.9918 39.22 41.9918 41.6185C41.9918 44.017 40.0533 45.9678 37.6701 45.9678ZM37.6701 38.883C36.1757 38.883 34.9606 40.1096 34.9606 41.6193C34.9606 43.1291 36.1757 44.3549 37.6701 44.3549C39.1645 44.3549 40.3789 43.1283 40.3789 41.6185C40.3789 40.1088 39.1637 38.883 37.6701 38.883Z" fill="#FBDB12"/>
</g>
<defs>
<clipPath id="clip0_4_624">
<rect width="50" height="50" rx="3" fill="white"/>
</clipPath>
</defs>
</svg>
