<svg width="50" height="50" viewBox="0 0 50 50" fill="none" xmlns="http://www.w3.org/2000/svg">
<path d="M45.8304 31.8968C45.6841 31.4578 45.4452 31.0553 45.1298 30.7166C44.8144 30.3779 44.43 30.1109 44.0025 29.9337C43.575 29.7565 43.1144 29.6732 42.6519 29.6895C42.1894 29.7058 41.7358 29.8212 41.3218 30.0281L40.6249 30.3757L40.2538 30.1914C39.6209 29.8853 38.9293 29.7199 38.2264 29.7064C37.5236 29.6929 36.8261 29.8317 36.1819 30.1132L34.9733 29.8109C34.3664 29.6629 33.7343 29.6502 33.1219 29.7737C32.5094 29.8972 31.9317 30.154 31.4296 30.5257L29.4265 32.0312H25.9655L24.8436 31.4695C23.3488 30.7221 21.6829 30.3831 20.0148 30.487C18.3468 30.5909 16.7358 31.1338 15.3452 32.0609L12.889 33.7015L11.7561 34.2671L10.8561 32.4703C10.767 32.2919 10.6131 32.1544 10.4259 32.0858C10.2387 32.0173 10.0323 32.0229 9.84911 32.1015L4.38036 34.4453C4.2851 34.4869 4.19911 34.5472 4.12743 34.6225C4.05575 34.6978 3.99983 34.7867 3.96294 34.8839C3.92605 34.9811 3.90893 35.0847 3.91259 35.1886C3.91626 35.2925 3.94063 35.3946 3.98427 35.489L10.2343 48.7703C10.2802 48.8677 10.3458 48.9545 10.4269 49.0254C10.5081 49.0963 10.603 49.1496 10.7057 49.182C10.8084 49.2144 10.9167 49.2253 11.0238 49.2138C11.1309 49.2024 11.2345 49.1689 11.328 49.1156L16.7968 45.9906C16.9703 45.8917 17.0994 45.7302 17.1575 45.5391C17.2156 45.348 17.1984 45.142 17.1093 44.9632L16.278 43.3015C18.5292 42.1246 21.1236 41.7804 23.6038 42.3296L25.0249 42.6421C26.8734 43.0529 28.7874 43.0728 30.6441 42.7004C32.5007 42.328 34.259 41.5715 35.8061 40.4796L45.7679 33.4484C45.9048 33.3515 46.0069 33.2131 46.0591 33.0537C46.1113 32.8943 46.1108 32.7223 46.0577 32.5632L45.8304 31.8968ZM39.1991 31.4429L35.6507 34.4851C35.436 33.9561 35.108 33.4807 34.6897 33.0921L36.1124 31.9531C36.5438 31.6178 37.052 31.3955 37.591 31.3064C38.1301 31.2173 38.6828 31.2643 39.1991 31.4429ZM32.3679 31.7789C32.6606 31.5663 32.9934 31.4151 33.3461 31.3346C33.6988 31.254 34.0642 31.2457 34.4202 31.3101L33.2483 32.2476C32.8569 32.1105 32.4459 32.0374 32.0311 32.0312L32.3679 31.7789ZM11.2835 47.3437L5.73661 35.5593L9.78427 33.825L15.3772 44.9999L11.2835 47.3437ZM34.9007 39.2101C33.5317 40.1766 31.9757 40.846 30.3327 41.1755C28.6896 41.505 26.9958 41.4873 25.3601 41.1234L23.939 40.8109C21.1096 40.1855 18.1504 40.5755 15.5796 41.9124L12.4546 35.6687L13.6265 35.0812C13.6555 35.0665 13.6837 35.05 13.7108 35.032L16.2108 33.3679C17.3713 32.5932 18.7158 32.1388 20.1083 32.0509C21.5008 31.9629 22.8918 32.2445 24.1405 32.8671L25.4288 33.5117C25.5382 33.5662 25.6589 33.5943 25.7811 33.5937H32.0311C32.5157 33.5943 32.9883 33.7448 33.384 34.0245C33.7797 34.3043 34.0791 34.6996 34.2413 35.1562H27.3436V36.7187H35.1561C35.3426 36.7191 35.5228 36.6522 35.664 36.5304L41.0585 31.9062L42.0194 31.4257C42.2334 31.3189 42.4677 31.2593 42.7067 31.2509C42.9457 31.2425 43.1837 31.2855 43.4045 31.3771C43.6254 31.4687 43.8241 31.6066 43.9871 31.7816C44.15 31.9566 44.2735 32.1645 44.3491 32.3914L44.3874 32.5085L34.9007 39.2101Z" fill="#FBDB12"/>
<path d="M27.9047 5.46875C26.4396 5.50976 25.0157 5.96205 23.7955 6.77395C22.5753 7.58585 21.6081 8.72461 21.0044 10.0601C20.4007 11.3956 20.1848 12.874 20.3814 14.3264C20.5781 15.7788 21.1793 17.1465 22.1164 18.2734C22.7877 19.0841 23.2205 20.0654 23.3664 21.1078C23.1735 21.1236 22.9936 21.2112 22.8621 21.3533C22.7306 21.4953 22.6572 21.6815 22.6563 21.875V26.5625C22.6563 26.7697 22.7386 26.9684 22.8851 27.1149C23.0316 27.2614 23.2303 27.3438 23.4375 27.3438H24.2969C24.4762 28.2268 24.9553 29.0207 25.6529 29.5909C26.3506 30.1612 27.2239 30.4727 28.125 30.4727C29.0261 30.4727 29.8994 30.1612 30.5971 29.5909C31.2947 29.0207 31.7738 28.2268 31.9531 27.3438H32.8125C33.0197 27.3438 33.2184 27.2614 33.3649 27.1149C33.5114 26.9684 33.5938 26.7697 33.5938 26.5625V21.875C33.5928 21.6812 33.5191 21.4948 33.3873 21.3528C33.2555 21.2107 33.0752 21.1233 32.882 21.1078C33.0311 20.0624 33.4667 19.0786 34.1406 18.2656C35.0997 17.1093 35.7051 15.701 35.8841 14.2094C36.0632 12.7178 35.8085 11.2062 35.1504 9.85575C34.4923 8.50526 33.4588 7.37316 32.1737 6.59508C30.8886 5.817 29.4064 5.42593 27.9047 5.46875ZM28.125 28.9062C27.642 28.9042 27.1714 28.7531 26.7776 28.4734C26.3838 28.1937 26.086 27.7991 25.925 27.3438H30.325C30.164 27.7991 29.8662 28.1937 29.4724 28.4734C29.0786 28.7531 28.608 28.9042 28.125 28.9062ZM32.0313 25.7812H24.2188V22.6562H32.0313V25.7812ZM32.9375 17.2656C32.03 18.355 31.4598 19.6853 31.2969 21.0938H24.9508C24.791 19.6881 24.2231 18.36 23.3172 17.2734C22.568 16.372 22.0874 15.278 21.9303 14.1164C21.7732 12.9548 21.946 11.7725 22.4288 10.7044C22.9116 9.6363 23.685 8.72549 24.6607 8.07599C25.6365 7.42648 26.7752 7.06446 27.9469 7.03125C28.7836 6.99986 29.6179 7.1405 30.3981 7.44447C31.1783 7.74843 31.8878 8.20926 32.4828 8.79844C33.6091 9.89418 34.2814 11.374 34.3657 12.9431C34.4499 14.5123 33.94 16.0556 32.9375 17.2656Z" fill="#FBDB12"/>
<path d="M28.125 8.59375V10.1562C28.9538 10.1562 29.7487 10.4855 30.3347 11.0715C30.9208 11.6576 31.25 12.4524 31.25 13.2812H32.8125C32.8113 12.0384 32.317 10.8469 31.4382 9.96806C30.5594 9.08925 29.3678 8.59499 28.125 8.59375Z" fill="#FBDB12"/>
<path d="M27.3438 0.78125H28.9062V3.90625H27.3438V0.78125Z" fill="#FBDB12"/>
<path d="M34.5996 5.70044L36.9436 3.35649L38.0484 4.46135L35.7045 6.80529L34.5996 5.70044Z" fill="#FBDB12"/>
<path d="M18.1956 4.46045L19.3004 3.35559L21.6444 5.69954L20.5395 6.8044L18.1956 4.46045Z" fill="#FBDB12"/>
<path d="M35.3792 18.5229L36.484 17.4181L38.828 19.762L37.7231 20.8669L35.3792 18.5229Z" fill="#FBDB12"/>
<path d="M18.1941 20.541L20.538 18.1971L21.6429 19.3019L19.2989 21.6459L18.1941 20.541Z" fill="#FBDB12"/>
<path d="M37.5 11.7188H40.625V13.2812H37.5V11.7188Z" fill="#FBDB12"/>
<path d="M15.625 11.7188H18.75V13.2812H15.625V11.7188Z" fill="#FBDB12"/>
</svg>
