<svg width="50" height="50" viewBox="0 0 50 50" fill="none" xmlns="http://www.w3.org/2000/svg">
<path d="M42.6777 7.3223C37.9557 2.60041 31.6778 0 25 0C18.3222 0 12.0443 2.60041 7.3223 7.3223C2.60057 12.0443 0 18.3222 0 25C0 31.6778 2.60057 37.9557 7.3223 42.6777C12.0443 47.3996 18.3222 50 25 50C31.6778 50 37.9557 47.3996 42.6777 42.6777C47.3995 37.9557 50 31.6778 50 25C50 18.3222 47.3995 12.0443 42.6777 7.3223ZM41.5705 41.5704C37.1444 45.9967 31.2595 48.4342 25 48.4342C18.7405 48.4342 12.8556 45.9967 8.42941 41.5704C4.00335 37.1444 1.56577 31.2595 1.56577 25C1.56577 18.7405 4.00335 12.8556 8.42941 8.42958C12.8556 4.00335 18.7405 1.56577 25 1.56577C31.2595 1.56577 37.1444 4.00335 41.5705 8.42958C45.9967 12.8556 48.4342 18.7405 48.4342 25C48.4342 31.2595 45.9967 37.1444 41.5705 41.5704ZM25.7828 9.96871H24.2171V5.7933H25.7828V9.96871ZM24.2171 40.0313H25.7828V44.2066H24.2171V40.0313ZM9.96871 25.7828H5.7933V24.2171H9.96863L9.96871 25.7828ZM44.2067 24.2171V25.7828H40.0314V24.2171H44.2067ZM15.9711 10.9279L14.7185 8.75842L16.0744 7.97549L17.327 10.145L15.9711 10.9279ZM34.0276 39.0734L35.2802 41.2429L33.9242 42.0257L32.6716 39.8562L34.0276 39.0734ZM10.1439 32.6731L10.9268 34.0291L8.75727 35.2817L7.97435 33.9257L10.1439 32.6731ZM39.8556 17.3262L39.0726 15.9703L41.2422 14.7176L42.0251 16.0736L39.8556 17.3262ZM34.0279 10.9272L32.672 10.1443L33.9246 7.97476L35.2806 8.75768L34.0279 10.9272ZM15.9715 39.0735L17.3275 39.8564L16.0748 42.026L14.7189 41.2431L15.9715 39.0735ZM39.8565 32.6736L42.0261 33.9262L41.2431 35.2822L39.0736 34.0296L39.8565 32.6736ZM8.75825 14.7191L10.9278 15.9717L10.1449 17.3277L7.97533 16.0751L8.75825 14.7191ZM27.453 25C27.453 23.9212 26.7526 23.0034 25.7828 22.6758V11.6388H24.2171V22.6757C23.2473 23.0033 22.547 23.921 22.547 24.9999C22.547 26.3525 23.6474 27.4529 25 27.4529C25.6209 27.4529 26.1883 27.2205 26.6209 26.8388L36.1884 32.3586L36.9708 31.0024L27.4049 25.4834C27.4363 25.3273 27.453 25.1655 27.453 25ZM25 25.8873C24.5108 25.8873 24.1127 25.4892 24.1127 25C24.1127 24.5108 24.5108 24.1127 25 24.1127C25.4892 24.1127 25.8873 24.5108 25.8873 25C25.8873 25.4892 25.4892 25.8873 25 25.8873ZM25 4.17533C13.5172 4.17533 4.17533 13.5172 4.17533 25C4.17533 36.4828 13.5172 45.8247 25 45.8247C36.4828 45.8247 45.8247 36.4828 45.8247 25C45.8247 13.5172 36.4828 4.17533 25 4.17533ZM25 44.2589C14.3806 44.2589 5.7411 35.6193 5.7411 25C5.7411 14.3807 14.3806 5.7411 25 5.7411C35.6194 5.7411 44.2589 14.3807 44.2589 25C44.2589 35.6193 35.6194 44.2589 25 44.2589Z" fill="#FBDB12"/>
</svg>
